<svg width="24" height="24" viewBox="0 0 24 24" fill="none" xmlns="http://www.w3.org/2000/svg">
  <path d="M20 8H19L17.5 3.5C17.1 2.6 16.2 2 15.2 2H8.8C7.8 2 6.9 2.6 6.5 3.5L5 8H4C3.4 8 3 8.4 3 9V10C3 10.6 3.4 11 4 11H5V17C5 17.6 5.4 18 6 18H7C7.6 18 8 17.6 8 17V16H16V17C16 17.6 16.4 18 17 18H18C18.6 18 19 17.6 19 17V11H20C20.6 11 21 10.6 21 10V9C21 8.4 20.6 8 20 8ZM8.5 4.5L9.4 3H14.7L15.5 4.5L16.5 7H7.5L8.5 4.5ZM7 14C6.4 14 6 13.6 6 13C6 12.4 6.4 12 7 12C7.6 12 8 12.4 8 13C8 13.6 7.6 14 7 14ZM17 14C16.4 14 16 13.6 16 13C16 12.4 16.4 12 17 12C17.6 12 18 12.4 18 13C18 13.6 17.6 14 17 14Z" fill="#999999"/>
  <path d="M6 19C5.4 19 5 19.4 5 20V21C5 21.6 5.4 22 6 22H7C7.6 22 8 21.6 8 21V20C8 19.4 7.6 19 7 19H6Z" fill="#999999"/>
  <path d="M17 19C16.4 19 16 19.4 16 20V21C16 21.6 16.4 22 17 22H18C18.6 22 19 21.6 19 21V20C19 19.4 18.6 19 18 19H17Z" fill="#999999"/>
</svg> 