<svg width="24" height="24" viewBox="0 0 24 24" fill="none" xmlns="http://www.w3.org/2000/svg">
  <path d="M9 13.75C6.66 13.75 2 14.92 2 17.25V19H16V17.25C16 14.92 11.34 13.75 9 13.75Z" fill="#999999"/>
  <path d="M16.08 13.82C17.5 14.35 19 15.18 19 17.25V19H22V17.25C22 15.01 18.42 13.83 16.08 13.82Z" fill="#999999"/>
  <path d="M9 12C10.93 12 12.5 10.43 12.5 8.5C12.5 6.57 10.93 5 9 5C7.07 5 5.5 6.57 5.5 8.5C5.5 10.43 7.07 12 9 12Z" fill="#999999"/>
  <path d="M16.04 11.61C17.2 11.61 18.15 10.66 18.15 9.5C18.15 8.34 17.2 7.39 16.04 7.39C15.79 7.39 15.56 7.44 15.33 7.5C15.74 8.37 15.9 9.33 15.7 10.26C15.97 10.87 16.5 11.5 16.04 11.61Z" fill="#999999"/>
</svg> 