<svg width="24" height="24" viewBox="0 0 24 24" fill="none" xmlns="http://www.w3.org/2000/svg">
  <path d="M12 22C11.45 22 11 21.55 11 21V14H7C5.9 14 5 13.1 5 12C5 7.58 8.58 4 13 4C17.42 4 21 7.58 21 12C21 17.3 16.93 21.73 11.73 21.98C11.49 21.99 11.24 22 11 22H12Z" fill="#999999"/>
  <path d="M9 11C9.83 11 10.5 10.33 10.5 9.5C10.5 8.67 9.83 8 9 8C8.17 8 7.5 8.67 7.5 9.5C7.5 10.33 8.17 11 9 11Z" fill="#666666"/>
  <path d="M15 10C15.83 10 16.5 9.33 16.5 8.5C16.5 7.67 15.83 7 15 7C14.17 7 13.5 7.67 13.5 8.5C13.5 9.33 14.17 10 15 10Z" fill="#666666"/>
  <path d="M18 14C18.83 14 19.5 13.33 19.5 12.5C19.5 11.67 18.83 11 18 11C17.17 11 16.5 11.67 16.5 12.5C16.5 13.33 17.17 14 18 14Z" fill="#666666"/>
  <path d="M13 19C13.83 19 14.5 18.33 14.5 17.5C14.5 16.67 13.83 16 13 16C12.17 16 11.5 16.67 11.5 17.5C11.5 18.33 12.17 19 13 19Z" fill="#666666"/>
</svg> 