<svg width="24" height="24" viewBox="0 0 24 24" fill="none" xmlns="http://www.w3.org/2000/svg">
  <path d="M12 22C6.49 22 2 17.51 2 12C2 6.49 6.49 2 12 2C17.51 2 22 6.49 22 12C22 17.51 17.51 22 12 22ZM12 4C7.59 4 4 7.59 4 12C4 16.41 7.59 20 12 20C16.41 20 20 16.41 20 12C20 7.59 16.41 4 12 4Z" fill="#999999"/>
  <path d="M12 13C9.33 13 7.15 15.17 7.15 18H8.85C8.85 16.11 10.25 14.7 12.15 14.7C14.04 14.7 15.45 16.11 15.45 18H17.15C17.15 15.17 14.97 13 12.3 13H12Z" fill="#999999"/>
  <path d="M12 12C13.6569 12 15 10.6569 15 9C15 7.34315 13.6569 6 12 6C10.3431 6 9 7.34315 9 9C9 10.6569 10.3431 12 12 12Z" fill="#999999"/>
  <path d="M17.67 14.58C18.36 15.33 18.82 16.29 18.93 17.32C20.7 15.85 21.74 13.55 21.74 11H19.96C19.97 12.29 19.56 13.62 17.67 14.58Z" fill="#999999"/>
  <path d="M5.06 11H3.29C3.29 13.55 4.34 15.85 6.11 17.32C6.22 16.29 6.67 15.33 7.37 14.58C5.47 13.62 5.06 12.34 5.06 11Z" fill="#999999"/>
  <path d="M7.37 9.42C6.67 8.67 6.22 7.71 6.11 6.68C4.34 8.15 3.29 10.45 3.29 13H5.06C5.06 11.71 5.46 10.38 7.37 9.42Z" fill="#999999"/>
  <path d="M17.67 9.42C19.57 10.38 19.97 11.66 19.97 13H21.75C21.75 10.45 20.7 8.15 18.93 6.68C18.82 7.71 18.37 8.67 17.67 9.42Z" fill="#999999"/>
</svg> 