<svg width="24" height="24" viewBox="0 0 24 24" fill="none" xmlns="http://www.w3.org/2000/svg">
  <path d="M21 5C19.89 4.65 18.67 4.5 17.5 4.5C15.55 4.5 13.45 4.9 12 6C10.55 4.9 8.45 4.5 6.5 4.5C4.55 4.5 2.45 4.9 1 6V20.65C1 20.9 1.25 21.15 1.5 21.15C1.6 21.15 1.65 21.1 1.75 21.1C3.1 20.45 5.05 20 6.5 20C8.45 20 10.55 20.4 12 21.5C13.35 20.65 15.8 20 17.5 20C19.15 20 20.85 20.3 22.25 21.05C22.35 21.1 22.4 21.1 22.5 21.1C22.75 21.1 23 20.85 23 20.6V6C22.4 5.55 21.75 5.25 21 5ZM21 18.5C19.9 18.15 18.7 18 17.5 18C15.8 18 13.35 18.65 12 19.5V8C13.35 7.15 15.8 6.5 17.5 6.5C18.7 6.5 19.9 6.65 21 7V18.5Z" fill="#999999"/>
  <path d="M17.5 10.5C18.38 10.5 19.23 10.59 20 10.76V9.24C19.21 9.09 18.36 9 17.5 9C16.22 9 15.01 9.16 14 9.42V10.94C14.99 10.67 16.18 10.5 17.5 10.5Z" fill="#666666"/>
  <path d="M17.5 13.5C18.38 13.5 19.23 13.59 20 13.76V12.24C19.21 12.09 18.36 12 17.5 12C16.22 12 15.01 12.16 14 12.42V13.94C14.99 13.67 16.18 13.5 17.5 13.5Z" fill="#666666"/>
  <path d="M17.5 16.5C18.38 16.5 19.23 16.59 20 16.76V15.24C19.21 15.09 18.36 15 17.5 15C16.22 15 15.01 15.16 14 15.42V16.94C14.99 16.67 16.18 16.5 17.5 16.5Z" fill="#666666"/>
</svg> 