<svg width="24" height="24" viewBox="0 0 24 24" fill="none" xmlns="http://www.w3.org/2000/svg">
  <path d="M12 1L3 5V11C3 16.5 6.8 21.7 12 23C17.2 21.7 21 16.5 21 11V5L12 1ZM19 11C19 15.1 16.4 19.1 12 20.9C7.6 19.1 5 15.1 5 11V6.3L12 3.2L19 6.3V11Z" fill="#999999"/>
  <path d="M7.5 11.5C7.5 9 9.5 7 12 7C14.5 7 16.5 9 16.5 11.5C16.5 12.7 16 13.7 15.2 14.5L16 16H8L8.8 14.5C8 13.7 7.5 12.7 7.5 11.5ZM10 11.5C10 12.3 10.7 13 11.5 13H12.5C13.3 13 14 12.3 14 11.5C14 10.7 13.3 10 12.5 10H11.5C10.7 10 10 10.7 10 11.5Z" fill="#666666"/>
</svg> 