<svg width="24" height="24" viewBox="0 0 24 24" fill="none" xmlns="http://www.w3.org/2000/svg">
  <path d="M14.7 6.3C14.3 5.9 13.7 5.9 13.3 6.3L11.9 7.7L4.7 0.5C4.3 0.1 3.7 0.1 3.3 0.5L0.6 3.2C0.2 3.6 0.2 4.2 0.6 4.6L7.8 11.8L6.3 13.3C5.9 13.7 5.9 14.3 6.3 14.7L9.3 17.7C9.7 18.1 10.3 18.1 10.7 17.7L17.7 10.7C18.1 10.3 18.1 9.7 17.7 9.3L14.7 6.3Z" fill="#999999"/>
  <path d="M23.7 16.3L21.7 14.3C21.3 13.9 20.7 13.9 20.3 14.3L19.3 15.3L18.1 14.1C17.7 13.7 17.1 13.7 16.7 14.1C16.3 14.5 16.3 15.1 16.7 15.5L17.9 16.7L16.9 17.7C16.5 18.1 16.5 18.7 16.9 19.1L18.9 21.1C19.3 21.5 19.9 21.5 20.3 21.1L23.7 17.7C24.1 17.3 24.1 16.7 23.7 16.3Z" fill="#999999"/>
  <path d="M12.5 18.5L13.5 17.5C13.9 17.1 13.9 16.5 13.5 16.1C13.1 15.7 12.5 15.7 12.1 16.1L11.1 17.1L10.1 16.1C9.7 15.7 9.1 15.7 8.7 16.1C8.3 16.5 8.3 17.1 8.7 17.5L9.7 18.5L5.5 22.7C5.1 23.1 5.1 23.7 5.5 24.1C5.9 24.5 6.5 24.5 6.9 24.1L11.1 19.9L15.3 24.1C15.7 24.5 16.3 24.5 16.7 24.1C17.1 23.7 17.1 23.1 16.7 22.7L12.5 18.5Z" fill="#999999"/>
</svg> 